PathFileType	4	(X/Y/Z)	./resultDataOpenSim/trcMotMarkerGrf/sub10/qtm-04-06.trc
DataRate	CameraRate	NumFrames	NumMarkers	Units	OrigDataRate	OrigDataStartFrame	OrigNumFrames
250.000000	250.000000	8	24	m	250.000000	125	497
Frame#	Time	L.Toe.Tip			R.Toe.Tip			L.Ankle.Lat			R.Ankle.Lat			L.Ankle.Med			R.Ankle.Med			L.Heel			R.Heel			L.Knee.Lat			R.Knee.Lat			L.Knee.Med			R.Knee.Med			L.Thigh.Upper			R.Thigh.Upper			L.ASIS			R.ASIS			V.Sacral			L.Acromium			R.Acromium			C7			L.Elbow			R.Elbow			L.Wrist.Lat			R.Wrist.Lat
		X1	Y1	Z1	X2	Y2	Z2	X3	Y3	Z3	X4	Y4	Z4	X5	Y5	Z5	X6	Y6	Z6	X7	Y7	Z7	X8	Y8	Z8	X9	Y9	Z9	X10	Y10	Z10	X11	Y11	Z11	X12	Y12	Z12	X13	Y13	Z13	X14	Y14	Z14	X15	Y15	Z15	X16	Y16	Z16	X17	Y17	Z17	X18	Y18	Z18	X19	Y19	Z19	X20	Y20	Z20	X21	Y21	Z21	X22	Y22	Z22	X23	Y23	Z23	X24	Y24	Z24

125	0.496	-0.32674154	0.073948553	-0.15913804	-0.74087709	0.039116838	-0.0011009943	-0.45995651	0.092631849	-0.18365726	-0.88575879	0.054945996	0.024498988	-0.44976064	0.11593394	-0.10068674	-0.85910438	0.081755111	-0.058088133	-0.51959362	0.058284244	-0.13677001	-0.93171508	0.032676683	-0.027169172	-0.45682163	0.48492866	-0.20441534	-0.76825253	0.44242925	0.075756707	-0.43613215	0.46328273	-0.084879081	-0.75288116	0.44449676	-0.054633995	-0.61227722	0.83915907	-0.24658825	-0.69739004	0.85013516	0.13085638	-0.57488342	0.94484342	-0.16797507	-0.6056205	0.93777515	0.074902434	-0.78457949	0.95405489	-0.072612003	-0.65020426	1.4169322	-0.19595742	-0.66938325	1.4067099	0.12661275	-0.73828291	1.4382903	-0.043834428	-0.79797253	1.1138912	-0.27908012	-0.71479509	1.0605436	0.20930959	-0.71090221	0.88714646	-0.30631961	-0.5310359	0.90028058	0.25302229
126	0.5	-0.30941896	0.073345499	-0.15616663	-0.74091974	0.039055794	-0.0011205657	-0.44277054	0.090681415	-0.18350841	-0.88574836	0.054952038	0.024393572	-0.43393255	0.11457194	-0.10056192	-0.85892843	0.081652368	-0.058196786	-0.50260942	0.056093851	-0.13779315	-0.93157124	0.032796963	-0.027616003	-0.44984387	0.48329821	-0.20420821	-0.76614302	0.44184826	0.075646883	-0.43031587	0.46170236	-0.084450848	-0.75027947	0.44388189	-0.054600761	-0.60551001	0.83787987	-0.24621066	-0.69335166	0.84921751	0.13089482	-0.56863962	0.94340653	-0.16742142	-0.60098337	0.93650787	0.07529219	-0.77992679	0.95258923	-0.073973312	-0.6448896	1.4155117	-0.19573958	-0.66421793	1.4053201	0.12682609	-0.73307389	1.4368562	-0.04365606	-0.79437036	1.1132231	-0.27964602	-0.70725419	1.0587963	0.21020254	-0.70814053	0.88606608	-0.30682975	-0.52132766	0.90075713	0.25299675
127	0.504	-0.29239431	0.072639247	-0.1530931	-0.74100099	0.038939507	-0.0011649721	-0.42574772	0.088885125	-0.18339115	-0.88565394	0.05498385	0.024295511	-0.41819942	0.11335361	-0.10046287	-0.85874275	0.081536424	-0.058295827	-0.48579291	0.054207733	-0.13869423	-0.93150404	0.032899802	-0.02792988	-0.44283054	0.48161571	-0.20398944	-0.76398172	0.44122971	0.075507535	-0.42466021	0.45995806	-0.084152882	-0.74765933	0.4432058	-0.05460071	-0.59886997	0.83650477	-0.24585254	-0.68927277	0.84827788	0.13092384	-0.56236471	0.94192249	-0.16685275	-0.59639048	0.93520548	0.075653862	-0.77561176	0.95094144	-0.076276072	-0.6395589	1.4140359	-0.19551293	-0.6590125	1.4038523	0.12702742	-0.72785175	1.4353728	-0.043481715	-0.79067393	1.1124889	-0.2801859	-0.69970332	1.0570017	0.21105698	-0.70543719	0.88493249	-0.30737059	-0.51161848	0.90119579	0.25292131
128	0.508	-0.27570761	0.071893331	-0.14993682	-0.74107559	0.038800655	-0.0011938257	-0.4089364	0.08724931	-0.18332044	-0.88557248	0.055023257	0.024230204	-0.40260922	0.11225747	-0.10040715	-0.85854401	0.081423891	-0.058399566	-0.46919872	0.052579091	-0.13957164	-0.93159416	0.03296568	-0.02794904	-0.43582578	0.47987626	-0.20374021	-0.76171866	0.44058067	0.075367142	-0.4191347	0.45803864	-0.083940175	-0.74496171	0.44249786	-0.054605428	-0.59237484	0.83503783	-0.2455218	-0.68515776	0.84731067	0.13094519	-0.5560631	0.94039607	-0.16627228	-0.59180095	0.9338824	0.075993301	-0.77058623	0.94901729	-0.078561719	-0.63421083	1.4125121	-0.19527887	-0.65378404	1.4023072	0.12722061	-0.72260811	1.4338449	-0.043318305	-0.78642354	1.1116726	-0.28000595	-0.69214372	1.0551597	0.21187454	-0.70280871	0.88373187	-0.30793485	-0.5019174	0.90159812	0.25279858
129	0.512	-0.25940054	0.071168259	-0.14674079	-0.74109222	0.038696723	-0.0011678284	-0.39238564	0.085806119	-0.18331776	-0.88554897	0.055060747	0.024193748	-0.38726205	0.11127179	-0.10042961	-0.8583332	0.081327042	-0.058512887	-0.45288348	0.05115918	-0.14050451	-0.93177904	0.033025552	-0.027783573	-0.42888148	0.47807887	-0.20347587	-0.75928729	0.43992788	0.075268797	-0.4137129	0.45594256	-0.083778959	-0.74214916	0.44177982	-0.054598393	-0.58591799	0.8334932	-0.24519312	-0.68100637	0.84631831	0.1309486	-0.54972522	0.93882468	-0.16567641	-0.587198	0.93254337	0.076314837	-0.76443326	0.94673783	-0.080387686	-0.62883552	1.4109412	-0.19505117	-0.64854278	1.4006965	0.12740754	-0.71733553	1.4322745	-0.04316559	-0.78169911	1.1107821	-0.27915336	-0.68457721	1.053271	0.21265876	-0.70010705	0.88245288	-0.30846723	-0.49224274	0.90196402	0.25263373
130	0.516	-0.2435065	0.070501009	-0.14356492	-0.74105826	0.038646418	-0.0010996212	-0.37611282	0.084578508	-0.18338181	-0.88554269	0.055105903	0.024139661	-0.37229486	0.11041474	-0.10057084	-0.85811301	0.081248089	-0.058632753	-0.43689232	0.049920465	-0.14151724	-0.93191624	0.033123498	-0.027698408	-0.42203423	0.47622494	-0.20322172	-0.75665539	0.4392932	0.075232766	-0.40835212	0.45367054	-0.083647121	-0.73922916	0.44105796	-0.054583623	-0.57942817	0.83188095	-0.24484388	-0.67682131	0.84530295	0.13092647	-0.54333778	0.93720356	-0.1650656	-0.58257826	0.93118408	0.076626864	-0.75760238	0.94426352	-0.081790101	-0.62343259	1.4093264	-0.19484803	-0.64329636	1.3990282	0.12759281	-0.71203933	1.4306602	-0.043014858	-0.77699281	1.1098308	-0.27829697	-0.67700641	1.0513379	0.21341079	-0.69711327	0.88110637	-0.30890419	-0.48260992	0.90229085	0.25242719
131	0.52	-0.22804173	0.069908339	-0.14045242	-0.741015	0.038624825	-0.0010268585	-0.36012525	0.083570035	-0.18348894	-0.88552702	0.055172333	0.024056425	-0.35787689	0.10971245	-0.10089228	-0.85788413	0.081184195	-0.058754969	-0.42125011	0.04886685	-0.14258064	-0.93194451	0.033268169	-0.027801461	-0.41526556	0.47432422	-0.202971	-0.75386151	0.43867341	0.075237313	-0.40298698	0.45123192	-0.083516623	-0.73622655	0.44032871	-0.054572213	-0.57289514	0.83020405	-0.2444664	-0.67261252	0.8442647	0.13088415	-0.53689455	0.9355317	-0.16444975	-0.57794022	0.92979867	0.076938606	-0.75099835	0.94203097	-0.082806486	-0.61802392	1.4076784	-0.19468158	-0.63805219	1.3973034	0.12778506	-0.70674814	1.4290001	-0.042854193	-0.77259539	1.1088255	-0.27787835	-0.66943417	1.0493639	0.21412937	-0.69379342	0.87972841	-0.30925793	-0.47302839	0.90257718	0.25217338
132	0.524	-0.21301831	0.069390674	-0.13741984	-0.74098146	0.038606769	-0.00096748225	-0.3444722	0.082767735	-0.1836206	-0.88554269	0.055259776	0.024000595	-0.34412153	0.10914553	-0.10143835	-0.85764335	0.08113111	-0.058876126	-0.4059717	0.04801433	-0.14365602	-0.93190374	0.033439632	-0.028006728	-0.40849152	0.47240305	-0.20269828	-0.75099524	0.43803933	0.075232802	-0.39757241	0.44865038	-0.083365434	-0.73314811	0.43958789	-0.0545712	-0.56632608	0.82845967	-0.24406146	-0.6683907	0.84320325	0.13083506	-0.53039647	0.93381127	-0.16383663	-0.57328362	0.92838484	0.07725352	-0.74522997	0.94036274	-0.08340472	-0.61263955	1.4060053	-0.19454881	-0.63280784	1.3955221	0.12798775	-0.70151553	1.4272954	-0.042671457	-0.76838743	1.1077651	-0.27779213	-0.66186217	1.0473517	0.21481203	-0.69035922	0.87835313	-0.3096204	-0.46350345	0.90282399	0.25186828
